<svg width="20" height="22" viewBox="0 0 20 22" fill="none" xmlns="http://www.w3.org/2000/svg">
<path fill-rule="evenodd" clip-rule="evenodd" d="M6.12673 2.56055C5.76931 2.24284 5.23069 2.24284 4.87327 2.56055C3.98775 3.34768 2.67284 3.38188 1.75 2.66317V19.337C2.67284 18.6183 3.98775 18.6525 4.87327 19.4396C5.23069 19.7573 5.76931 19.7573 6.12673 19.4396C7.05248 18.6167 8.44752 18.6167 9.37327 19.4396C9.73069 19.7573 10.2693 19.7573 10.6267 19.4396C11.5525 18.6167 12.9475 18.6167 13.8733 19.4396C14.2307 19.7573 14.7693 19.7573 15.1267 19.4396C16.0122 18.6525 17.3272 18.6183 18.25 19.337V2.66317C17.3272 3.38188 16.0122 3.34768 15.1267 2.56055C14.7693 2.24284 14.2307 2.24284 13.8733 2.56055C12.9475 3.38344 11.5525 3.38344 10.6267 2.56055C10.2693 2.24284 9.73069 2.24284 9.37327 2.56055C8.44752 3.38344 7.05248 3.38344 6.12673 2.56055ZM3.87673 1.43943C4.80248 0.616543 6.19752 0.616543 7.12327 1.43943C7.48069 1.75714 8.01931 1.75714 8.37673 1.43943C9.30248 0.616543 10.6975 0.616543 11.6233 1.43943C11.9807 1.75714 12.5193 1.75714 12.8767 1.43943C13.8025 0.616543 15.1975 0.616543 16.1233 1.43943C16.4807 1.75714 17.0193 1.75714 17.3767 1.43943C18.2963 0.622023 19.75 1.27482 19.75 2.50519V19.495C19.75 20.7253 18.2963 21.3781 17.3767 20.5607C17.0193 20.243 16.4807 20.243 16.1233 20.5607C15.1975 21.3836 13.8025 21.3836 12.8767 20.5607C12.5193 20.243 11.9807 20.243 11.6233 20.5607C10.6975 21.3836 9.30248 21.3836 8.37673 20.5607C8.01931 20.243 7.48069 20.243 7.12327 20.5607C6.19752 21.3836 4.80248 21.3836 3.87673 20.5607C3.51931 20.243 2.98069 20.243 2.62327 20.5607C1.70369 21.3781 0.25 20.7253 0.25 19.495V2.50519C0.25 1.27482 1.70369 0.622023 2.62327 1.43943C2.98069 1.75714 3.51931 1.75714 3.87673 1.43943ZM4.75 7.50017C4.75 7.08595 5.08579 6.75017 5.5 6.75017H14.5C14.9142 6.75017 15.25 7.08595 15.25 7.50017C15.25 7.91438 14.9142 8.25017 14.5 8.25017H5.5C5.08579 8.25017 4.75 7.91438 4.75 7.50017ZM4.75 11.0002C4.75 10.586 5.08579 10.2502 5.5 10.2502H14.5C14.9142 10.2502 15.25 10.586 15.25 11.0002C15.25 11.4144 14.9142 11.7502 14.5 11.7502H5.5C5.08579 11.7502 4.75 11.4144 4.75 11.0002ZM4.75 14.5002C4.75 14.086 5.08579 13.7502 5.5 13.7502H14.5C14.9142 13.7502 15.25 14.086 15.25 14.5002C15.25 14.9144 14.9142 15.2502 14.5 15.2502H5.5C5.08579 15.2502 4.75 14.9144 4.75 14.5002Z" fill="#000"/>
</svg>
